PathFileType	4	(X/Y/Z)	output.trc
DataRate	CameraRate	NumFrames	NumMarkers	Units	OrigDataRate	OrigDataStartFrame	OrigNumFrames
100	100	12	23	m	100	2128	5673
Frame#	Time	C7			T8			EL			EM			US			RS			AA			Fore_Clus_1			Fore_Clus_2			Fore_Clus_3			Fore_Clus_4			Hum_Clus_1			Hum_Clus_2			Hum_Clus_3			Hum_Clus_4			Thor_Clus_1			Thor_Clus_2			Thor_Clus_3			Thor_Clus_4			IJ			PX			GH			Thor_Clus_5		
		X1	Y1	Z1	X2	Y2	Z2	X3	Y3	Z3	X4	Y4	Z4	X5	Y5	Z5	X6	Y6	Z6	X7	Y7	Z7	X8	Y8	Z8	X9	Y9	Z9	X10	Y10	Z10	X11	Y11	Z11	X12	Y12	Z12	X13	Y13	Z13	X14	Y14	Z14	X15	Y15	Z15	X16	Y16	Z16	X17	Y17	Z17	X18	Y18	Z18	X19	Y19	Z19	X20	Y20	Z20	X21	Y21	Z21	X22	Y22	Z22	X23	Y23	Z23
2127	21.270000	-0.092938	1.518683	-0.143157	-0.105329	1.290911	-0.220711	-0.301115	1.133331	0.027349	-0.266505	1.108126	-0.037124	-0.170973	1.155586	0.236394	-0.169878	1.208727	0.217934	-0.248447	1.438571	-0.020554	-0.223826	1.153264	0.211103	-0.195680	1.169947	0.254818	-0.197089	1.196331	0.245611	-0.226080	1.195394	0.195662	-0.302410	1.238992	0.055126	-0.329736	1.248086	0.002170	-0.328682	1.311697	0.000474	-0.294283	1.312370	0.048252	0.030539	1.411697	-0.005064	-0.009748	1.353823	0.041101	-0.009122	1.404693	0.013522	0.047815	1.363584	0.013748	-0.024620	1.430273	-0.045182	0.008625	1.218143	0.008573	-0.221914	1.406792	-0.031291	-0.017463	1.374934	0.032409
2128	21.280000	-0.092965	1.518657	-0.143264	-0.105370	1.290863	-0.220749	-0.301129	1.133354	0.027352	-0.266536	1.108138	-0.037126	-0.170951	1.155480	0.236383	-0.169808	1.208621	0.217923	-0.248451	1.438580	-0.020609	-0.223775	1.153179	0.211109	-0.195599	1.169829	0.254830	-0.196993	1.196222	0.245618	-0.226009	1.195305	0.195694	-0.302411	1.239041	0.055132	-0.329743	1.248123	0.002176	-0.328683	1.311734	0.000470	-0.294278	1.312406	0.048235	0.030525	1.411701	-0.005090	-0.009752	1.353828	0.041025	-0.009105	1.404703	0.013437	0.047806	1.363601	0.013656	-0.024628	1.430277	-0.045275	0.008628	1.218162	0.008536	-0.221916	1.406801	-0.031337	-0.017457	1.374935	0.032308
2129	21.290000	-0.092987	1.518631	-0.143376	-0.105403	1.290813	-0.220790	-0.301140	1.133377	0.027350	-0.266563	1.108153	-0.037133	-0.170930	1.155373	0.236371	-0.169740	1.208513	0.217915	-0.248454	1.438592	-0.020673	-0.223722	1.153086	0.211100	-0.195539	1.169713	0.254829	-0.196913	1.196111	0.245623	-0.225945	1.195237	0.195709	-0.302398	1.239077	0.055122	-0.329749	1.248158	0.002174	-0.328679	1.311771	0.000461	-0.294272	1.312440	0.048220	0.030573	1.411786	-0.005441	-0.009768	1.353854	0.040957	-0.009106	1.404732	0.013343	0.047811	1.363638	0.013586	-0.024635	1.430281	-0.045371	0.008629	1.218182	0.008500	-0.221921	1.406813	-0.031381	-0.017456	1.374967	0.032248
2130	21.300000	-0.093007	1.518602	-0.143493	-0.105429	1.290759	-0.220833	-0.301147	1.133399	0.027342	-0.266584	1.108169	-0.037147	-0.170914	1.155263	0.236361	-0.169676	1.208404	0.217909	-0.248458	1.438600	-0.020746	-0.223721	1.152999	0.211106	-0.195538	1.169605	0.254843	-0.196864	1.195999	0.245619	-0.225911	1.195150	0.195722	-0.302394	1.239102	0.055114	-0.329764	1.248177	0.002186	-0.328688	1.311785	0.000462	-0.294267	1.312460	0.048201	0.030593	1.411826	-0.005583	-0.009768	1.353880	0.040887	-0.009111	1.404740	0.013262	0.047802	1.363663	0.013497	-0.024642	1.430284	-0.045468	0.008631	1.218203	0.008466	-0.221929	1.406828	-0.031423	-0.017455	1.374999	0.032145
2131	21.310000	-0.093015	1.518581	-0.143609	-0.105444	1.290717	-0.220884	-0.301150	1.133417	0.027328	-0.266599	1.108184	-0.037166	-0.170900	1.155153	0.236348	-0.169618	1.208296	0.217903	-0.248459	1.438615	-0.020830	-0.223722	1.152936	0.211100	-0.195541	1.169524	0.254828	-0.196848	1.195909	0.245616	-0.225890	1.195099	0.195709	-0.302357	1.239108	0.055105	-0.329753	1.248185	0.002167	-0.328687	1.311797	0.000445	-0.294247	1.312468	0.048181	0.030587	1.411833	-0.005652	-0.009759	1.353898	0.040831	-0.009103	1.404764	0.013176	0.047802	1.363679	0.013416	-0.024645	1.430290	-0.045563	0.008631	1.218224	0.008428	-0.221941	1.406843	-0.031466	-0.017461	1.375025	0.032087
2132	21.320000	-0.093021	1.518560	-0.143726	-0.105447	1.290676	-0.220941	-0.301149	1.133432	0.027306	-0.266609	1.108199	-0.037193	-0.170892	1.155046	0.236336	-0.169567	1.208190	0.217900	-0.248462	1.438623	-0.020923	-0.223752	1.152895	0.211076	-0.195577	1.169457	0.254818	-0.196828	1.195836	0.245592	-0.225878	1.195062	0.195691	-0.302348	1.239103	0.055082	-0.329754	1.248174	0.002154	-0.328687	1.311791	0.000436	-0.294240	1.312467	0.048159	0.030597	1.411865	-0.005718	-0.009768	1.353927	0.040763	-0.009106	1.404790	0.013099	0.047800	1.363716	0.013327	-0.024648	1.430296	-0.045658	0.008633	1.218245	0.008388	-0.221957	1.406858	-0.031507	-0.017458	1.375038	0.032014
2133	21.330000	-0.093019	1.518547	-0.143839	-0.105438	1.290646	-0.221008	-0.301146	1.133443	0.027278	-0.266615	1.108210	-0.037227	-0.170889	1.154943	0.236323	-0.169524	1.208090	0.217897	-0.248463	1.438632	-0.021026	-0.223773	1.152873	0.211041	-0.195611	1.169423	0.254782	-0.196818	1.195791	0.245556	-0.225860	1.195046	0.195651	-0.302333	1.239085	0.055041	-0.329746	1.248172	0.002115	-0.328689	1.311790	0.000404	-0.294239	1.312450	0.048127	0.030585	1.411875	-0.005786	-0.009767	1.353953	0.040714	-0.009113	1.404816	0.013038	0.047786	1.363741	0.013259	-0.024648	1.430304	-0.045750	0.008633	1.218265	0.008341	-0.221976	1.406872	-0.031550	-0.017451	1.375073	0.031940
2134	21.340000	-0.093011	1.518540	-0.143947	-0.105417	1.290628	-0.221084	-0.301142	1.133449	0.027243	-0.266618	1.108219	-0.037266	-0.170893	1.154845	0.236308	-0.169491	1.207995	0.217894	-0.248466	1.438640	-0.021137	-0.223800	1.152864	0.210999	-0.195662	1.169395	0.254754	-0.196815	1.195764	0.245510	-0.225831	1.195037	0.195598	-0.302333	1.239078	0.055000	-0.329747	1.248159	0.002070	-0.328697	1.311779	0.000367	-0.294244	1.312438	0.048092	0.030585	1.411899	-0.005858	-0.009762	1.353971	0.040649	-0.009131	1.404833	0.012979	0.047780	1.363774	0.013190	-0.024648	1.430314	-0.045839	0.008634	1.218283	0.008287	-0.221999	1.406884	-0.031594	-0.017452	1.375080	0.031859
2135	21.350000	-0.093004	1.518536	-0.144051	-0.105387	1.290614	-0.221166	-0.301139	1.133450	0.027202	-0.266620	1.108224	-0.037311	-0.170904	1.154755	0.236295	-0.169469	1.207908	0.217891	-0.248471	1.438640	-0.021255	-0.223825	1.152859	0.210960	-0.195683	1.169380	0.254721	-0.196812	1.195738	0.245469	-0.225812	1.195023	0.195547	-0.302346	1.239067	0.054947	-0.329762	1.248149	0.002014	-0.328708	1.311770	0.000311	-0.294261	1.312436	0.048042	0.030583	1.411921	-0.005929	-0.009758	1.353997	0.040591	-0.009133	1.404852	0.012912	0.047759	1.363794	0.013118	-0.024649	1.430323	-0.045925	0.008636	1.218300	0.008228	-0.222026	1.406893	-0.031639	-0.017465	1.375106	0.031786
2136	21.360000	-0.092990	1.518541	-0.144147	-0.105347	1.290618	-0.221259	-0.301139	1.133446	0.027158	-0.266624	1.108225	-0.037358	-0.170922	1.154674	0.236279	-0.169459	1.207830	0.217888	-0.248476	1.438641	-0.021378	-0.223831	1.152805	0.210931	-0.195703	1.169312	0.254691	-0.196826	1.195674	0.245447	-0.225808	1.194987	0.195528	-0.302364	1.239060	0.054892	-0.329780	1.248148	0.001951	-0.328726	1.311770	0.000249	-0.294285	1.312449	0.047984	0.030570	1.411940	-0.005993	-0.009769	1.354022	0.040526	-0.009166	1.404871	0.012844	0.047751	1.363817	0.013043	-0.024650	1.430334	-0.046005	0.008636	1.218314	0.008159	-0.222056	1.406897	-0.031686	-0.017473	1.375125	0.031718
2137	21.370000	-0.092983	1.518546	-0.144240	-0.105304	1.290622	-0.221355	-0.301144	1.133439	0.027111	-0.266631	1.108221	-0.037409	-0.170950	1.154602	0.236266	-0.169460	1.207761	0.217884	-0.248487	1.438631	-0.021503	-0.223822	1.152721	0.210901	-0.195698	1.169204	0.254664	-0.196847	1.195560	0.245478	-0.225818	1.194922	0.195522	-0.302386	1.239070	0.054838	-0.329813	1.248148	0.001892	-0.328768	1.311774	0.000191	-0.294323	1.312465	0.047922	0.030539	1.411955	-0.006059	-0.009798	1.354039	0.040467	-0.009137	1.404873	0.012713	0.047721	1.363845	0.012972	-0.024655	1.430344	-0.046084	0.008638	1.218327	0.008086	-0.222090	1.406898	-0.031735	-0.017482	1.375138	0.031632
2138	21.380000	-0.092977	1.518555	-0.144325	-0.105259	1.290634	-0.221456	-0.301155	1.133428	0.027064	-0.266644	1.108214	-0.037458	-0.170985	1.154539	0.236252	-0.169472	1.207701	0.217880	-0.248502	1.438618	-0.021629	-0.223816	1.152616	0.210878	-0.195707	1.169082	0.254647	-0.196876	1.195443	0.245479	-0.225856	1.194842	0.195540	-0.302424	1.239070	0.054789	-0.329844	1.248147	0.001841	-0.328800	1.311769	0.000134	-0.294366	1.312479	0.047882	0.030522	1.411958	-0.006152	-0.009822	1.354049	0.040376	-0.009117	1.404841	0.012522	0.047703	1.363846	0.012891	-0.024663	1.430354	-0.046159	0.008639	1.218336	0.008006	-0.222128	1.406894	-0.031786	-0.017529	1.375091	0.031490
